<svg width="164" height="164" xmlns="http://www.w3.org/2000/svg" xmlns:xlink="http://www.w3.org/1999/xlink" overflow="hidden"><defs><linearGradient x1="249" y1="114" x2="411" y2="276" gradientUnits="userSpaceOnUse" spreadMethod="reflect" id="fill0"><stop offset="0" stop-color="#305399"/><stop offset="0.02" stop-color="#305399"/><stop offset="0.05" stop-color="#EDED09"/><stop offset="0.43" stop-color="#255AC5"/><stop offset="1" stop-color="#32FA96"/></linearGradient></defs><g transform="translate(-248 -113)"><path d="M249 141.001C249 126.089 261.089 114 276.001 114L383.999 114C398.911 114 411 126.089 411 141.001L411 248.999C411 263.911 398.911 276 383.999 276L276.001 276C261.089 276 249 263.911 249 248.999Z" fill="url(#fill0)" fill-rule="evenodd"/><path d="M273 156.167C273 145.581 281.581 137 292.167 137L368.833 137C379.419 137 388 145.581 388 156.167L388 232.833C388 243.419 379.419 252 368.833 252L292.167 252C281.581 252 273 243.419 273 232.833Z" stroke="#FFFFFF" stroke-width="8" stroke-miterlimit="8" fill="none" fill-rule="evenodd"/><path d="M296 195C296 175.67 311.446 160 330.5 160 349.554 160 365 175.67 365 195 365 214.33 349.554 230 330.5 230 311.446 230 296 214.33 296 195Z" stroke="#FFFFFF" stroke-width="8" stroke-miterlimit="8" fill="none" fill-rule="evenodd"/><path d="M361 158.5C361 154.358 364.358 151 368.5 151 372.642 151 376 154.358 376 158.5 376 162.642 372.642 166 368.5 166 364.358 166 361 162.642 361 158.5Z" fill="#FFFFFF" fill-rule="evenodd"/></g></svg>